<?xml version="1.0" encoding="UTF-8" standalone="no"?>

<svg width="180mm" height="180mm" viewBox="0 0 180 180" version="1.1" xmlns="http://www.w3.org/2000/svg">
  <style>
    .background {
      fill: #0e0021
    }

    .corp {
      fill: #f3437e
    }
  </style>
  <defs>
    <clipPath id="circle">
      <ellipse ry="62" rx="62" cy="90" cx="90" />
    </clipPath>
  </defs>
  <!-- BACKGROUND -->
  <rect width="180" height="180" class="background" />
  <!-- STRIPE -->
  <rect width="180" height="23" y="21" fill="#ff31ab" clip-path="url(#circle)" />
  <rect width="180" height="4" y="45" fill="#ae41f5" clip-path="url(#circle)" />
  <rect width="180" height="6" y="50" fill="#914bfc" clip-path="url(#circle)" />
  <rect width="180" height="4" y="57" fill="#fb69fb" clip-path="url(#circle)" />
  <rect width="180" height="5" y="62" fill="#fc75f5" clip-path="url(#circle)" />
  <rect width="180" height="9" y="68" fill="#ff557f" clip-path="url(#circle)" />
  <rect width="180" height="7" y="78" fill="#fe3f46" clip-path="url(#circle)" />
  <rect width="180" height="6" y="89" fill="#925afd" clip-path="url(#circle)" />
  <rect width="180" height="4" y="96" fill="#905af9" clip-path="url(#circle)" />
  <rect width="180" height="4" y="101" fill="#6b2bbc" clip-path="url(#circle)" />
  <rect width="180" height="4" y="106" fill="#b271f8" clip-path="url(#circle)" />
  <!-- PALMITO -->
  <path
    d="M 70.895651,54.425694 C 67.096141,48.527561 63.630272,44.20364 57.242739,42.031648 c 3.314624,-1.86666 12.026078,-3.795259 18.504375,7.30969 0.955818,-2.904548 -0.567943,-11.584014 -3.115648,-17.895485 6.000841,3.817275 8.955369,10.470946 8.660894,14.981932 4.142154,-7.016812 11.266006,-9.113878 21.11645,-6.281548 -10.068896,2.689692 -11.633989,4.993849 -17.244822,12.05407 12.017269,-3.949972 17.607152,0.648845 20.725092,4.164999 -5.64221,-0.580194 -9.631619,0.470862 -14.749951,2.369857 8.980351,3.987696 11.559361,10.013816 9.029761,20.220995 -2.223279,-9.433259 -7.954292,-11.238872 -13.842234,-13.548582 7.902023,9.467296 1.148861,19.170561 0.980509,20.489337 -0.974259,-5.532682 -1.20569,-7.56318 -6.201006,-16.919493 -0.593219,7.335445 -3.604531,11.03647 -7.718427,13.048222 3.37706,-6.628724 3.748176,-13.141796 0.854471,-18.116943 -9.124638,6.226025 -11.09714,13.114326 -12.501012,22.285377 -1.138399,20.872294 9.815092,22.036544 27.342518,25.221434 l 2.613484,1.98907 -36.011971,-2.19302 c -1.220465,-3.33638 -5.924691,-10.01725 -2.508,-25.118962 C 57.800318,73.966837 61.44453,71.457786 69.55605,63.661986 62.939054,65.67184 60.627552,68.109168 56.026135,71.489614 57.73432,65.677956 60.399298,62.943944 63.907734,58.943357 57.442549,58.943986 54.499968,58.523886 49.2339,57.274393 61.25,50.684512 63.650136,51.587042 70.895651,54.425694 Z" />
  <!-- HESBAY -->
  <g id="HESBAY" fill="#7cf6ff">
    <path
      d="m 29.176773,116.72729 h 5.629841 v 8.79366 h 7.760472 v -8.79366 h 5.569979 v 23.41697 h -5.569979 v -9.61791 h -7.760472 v 9.61791 h -5.629841 z" />
    <path
      d="M 51.550937,116.72729 H 66.88719 l 0.04771,5.25639 h -9.575549 l -0.02705,3.53727 h 8.63292 l 0.02043,5.0054 H 57.40157 l 0.0093,4.01272 h 9.665337 l 0.125233,5.60519 H 51.640643 Z" />
    <path
      d="m 87.338449,117.76024 c -9.673826,-2.4373 -13.070854,-0.52134 -14.570203,0.38459 -1.499349,0.90594 -3.040112,3.44449 -3.108153,6.03196 -0.06804,2.58748 1.953164,4.56585 3.407332,5.41657 0.706147,0.41311 1.866173,0.90827 3.955154,0.93358 2.271517,0.0275 5.32782,0.18342 5.924961,0.94741 1.160851,1.48515 0.31169,2.38635 -0.964921,3.18067 -0.648525,0.40351 -3.508566,0.51206 -6.442726,0.18478 -2.841684,-0.31696 -5.770346,-1.06392 -5.770346,-1.06392 l 0.114589,5.21695 c 0,0 4.329426,0.87451 7.411775,1.15239 1.63425,0.14733 4.169679,0.0816 6.328285,-0.67052 1.912727,-0.66649 3.515893,-1.93829 4.136539,-3.09786 1.321076,-2.46821 1.471029,-4.70011 0.545264,-6.6848 -0.435852,-0.93439 -0.950964,-1.81908 -1.782091,-2.42947 -0.934216,-0.68611 -2.295241,-1.11264 -3.534791,-1.3493 -2.342318,-0.44721 -7.677236,-0.21153 -7.755538,-2.31155 -0.0783,-2.10002 2.926113,-2.01018 5.026591,-1.90316 2.100478,0.10702 7.074649,0.86824 7.074649,0.86824 z" />
    <path
      d="m 91.123359,116.72729 0.146648,23.41697 h 12.834223 c 0,0 2.25787,-0.4117 4.14435,-1.95938 1.15996,-0.95163 2.24282,-2.78967 2.38642,-3.9365 0.12741,-1.0176 0.0652,-3.11526 -0.64303,-4.08358 -1.10971,-1.51711 -3.14627,-1.91995 -3.14627,-1.91995 0,0 1.77324,-1.29033 2.22181,-2.26739 0.44856,-0.97707 0.67235,-2.45551 0.52805,-3.81403 -0.14429,-1.35852 -1.08286,-2.82686 -2.68786,-4.09927 -1.60501,-1.2724 -5.75483,-1.33687 -5.75483,-1.33687 z" />
    <path
      d="m 110.88784,140.14426 9.37605,-23.41697 h 5.84587 l 8.84131,23.41697 h -6.37999 l -1.39809,-4.23694 h -8.65309 l -1.74812,4.23694 z" />
    <path
      d="m 141.3313,116.72729 4.54808,7.18927 4.54069,-7.18927 h 6.84873 l -8.78583,13.36357 v 10.0534 h -5.80726 v -10.0534 l -9.11882,-13.36357 z" />
  </g>
  <g id="BBA" class="background">
    <path
      d="m 96.893334,122.10319 v 4.10851 h 5.779616 c 0,0 1.71716,-0.51878 1.71068,-2.08463 -0.006,-1.56585 -1.71068,-2.02388 -1.71068,-2.02388 z" />
    <path
      d="m 96.893334,130.66794 v 4.29815 h 6.341036 c 0,0 2.18967,-0.12379 2.17091,-2.11459 -0.0188,-1.9908 -2.17091,-2.18356 -2.17091,-2.18356 z" />
    <path d="m 120.4004,131.10955 2.71605,-6.35193 2.7183,6.35193 z" />
  </g>
  <!-- CORP -->
  <g id="corp" class="corp">
    <path
      d="m 80.381519,146.5763 0.963292,-0.95327 c 0,0 -0.774357,-1.17576 -2.728029,-1.14629 -1.953672,0.0295 -3.504902,1.68056 -3.523715,3.36629 -0.01881,1.68573 1.368641,3.6568 3.305431,3.66556 1.93679,0.009 2.959212,-1.23943 2.959212,-1.23943 l -0.824408,-1.0125 c 0,0 -1.036494,0.80553 -1.822909,0.76524 -0.786414,-0.0403 -2.002174,-0.62374 -1.95571,-2.0866 0.02285,-0.71952 0.24514,-1.14434 0.559147,-1.44894 0.324404,-0.31469 0.750133,-0.49755 1.372541,-0.52182 1.224869,-0.0478 1.695148,0.61176 1.695148,0.61176 z" />
    <ellipse rx="3.52" ry="3.52" cy="147.91629" cx="86.553993" />
    <path
      d="m 92.186336,144.68779 v 6.61943 l 1.338422,0.0294 v -2.4777 h 1.210003 l 1.793209,2.54428 1.666848,-0.0542 -1.666848,-2.49008 c 0,0 0.666154,-0.23342 0.99862,-0.70041 0.332465,-0.46699 0.604335,-1.57996 0.162969,-2.43746 -0.441366,-0.8575 -1.260022,-0.99298 -1.260022,-0.99298 z" />
    <path
      d="m 100.34963,144.67288 3.81212,0.0597 c 0.32899,0.0111 0.85487,0.14427 1.34383,0.84601 0.48896,0.70174 0.42474,1.54186 0.15218,2.28109 -0.27256,0.73923 -0.98752,0.98357 -1.34771,0.99864 l -2.47402,6.2e-4 v 2.52945 l -1.4864,-0.0203 z" />
  </g>
  <g id="orp" class="background">
    <ellipse rx="1.81" ry="1.81" cy="147.91629" cx="86.553993" />
    <path
      d="m 93.680262,145.9273 v 1.6584 h 2.272157 c 0,0 0.574812,-0.004 0.548541,-0.84982 -0.02627,-0.84585 -0.840802,-0.80858 -0.840802,-0.80858 z" />
    <path
      d="m 101.8719,145.9273 v 1.6584 h 1.97098 c 0,0 0.51824,-0.10497 0.50421,-0.86438 -0.014,-0.7594 -0.89575,-0.79402 -0.89575,-0.79402 z" />
  </g>
  <!-- LINES -->
  <g class="corp">
    <rect id="line" ry="0.64332068" y="147.19496" x="29.138653" height="1.3309687" width="38.825039" />
    <use href="#line" transform="translate(82)" />
  </g>
</svg>